<svg width="397" height="39" viewBox="0 0 397 39" fill="none" xmlns="http://www.w3.org/2000/svg">
<path d="M17.7746 6.45848C18.5194 8.24681 21.8956 16.4433 22.3921 17.5859H12.9586C13.4551 16.3937 17.0299 8.19714 17.7746 6.45848ZM15.8879 0.994141L0 37.4562H4.56778L11.3698 21.5103C11.3698 21.5103 23.2361 21.5103 23.8816 21.5103C24.1298 22.1064 30.485 37.4562 30.485 37.4562H35.301L19.9592 0.994141H15.8879Z" fill="#7CA7DE"/>
<path d="M71.6945 0.994141C71.6945 0.994141 60.0268 27.9184 59.1331 29.9552C58.2394 27.9184 46.5717 0.994141 46.5717 0.994141H40.7627V37.4562H45.0822V7.94876L58.0408 37.4562H60.1758C60.1758 37.4562 71.347 11.5751 72.9358 7.99843V37.4562H77.2553V0.994141H71.6945Z" fill="#7CA7DE"/>
<path d="M170.2 0.994141V37.4562H195.919V33.4325H174.569V20.6658H193.982V16.5924H174.569V5.01788H195.075V0.994141H170.2Z" fill="#7CA7DE"/>
<path d="M152.772 20.3177C158.482 19.3242 161.511 16.0952 161.511 10.8296C161.511 4.32206 157.092 0.993775 148.403 0.993775H133.161V16.592H123.529C122.436 6.75617 115.088 0.0996094 104.91 0.0996094C93.8381 0.0996094 86.0928 7.94839 86.0928 19.2248C86.0928 30.5012 93.8381 38.35 104.91 38.35C115.535 38.35 123.032 31.147 123.678 20.6157H133.21V37.4062H137.53V20.6654H148.254C148.552 21.1622 158.184 37.4558 158.184 37.4558H163.149C163.199 37.4558 153.517 21.4602 152.772 20.3177ZM104.91 34.3263C96.3703 34.3263 90.4123 28.1168 90.4123 19.2248C90.4123 10.3328 96.3703 4.12335 104.91 4.12335C113.45 4.12335 119.408 10.3328 119.408 19.2248C119.408 28.1168 113.4 34.3263 104.91 34.3263ZM137.48 16.5423V4.96784H149.347C156.397 4.96784 157.142 8.99159 157.142 10.7302C157.142 12.4689 156.397 16.5423 149.347 16.5423H137.48Z" fill="#7CA7DE"/>
<path d="M209.473 0.993517V37.4556H211.905V19.622H220.545C225.758 19.622 231.319 17.1878 231.319 10.3326C231.319 1.88768 223.226 0.943841 219.75 0.943841H209.473M212.452 3.12958H220.197C224.219 3.12958 228.886 5.01726 228.886 10.3823C228.886 15.6479 224.517 17.5356 220.396 17.5356H211.905V3.12958H212.452ZM245.568 0.993517L229.68 37.4556H232.163C232.163 37.4556 238.865 21.758 238.965 21.46H254.455C254.604 21.758 261.059 37.4556 261.059 37.4556H263.839L248.448 0.993517H245.568ZM246.362 4.1231C246.362 4.1231 246.66 3.47731 246.859 2.93087C247.306 3.97407 253.313 18.7278 253.562 19.3736H239.908C240.156 18.6781 246.362 4.1231 246.362 4.1231ZM267.662 19.2246C267.662 30.501 275.408 38.3498 286.48 38.3498C291.842 38.3498 296.211 36.313 299.388 32.339L299.537 32.1403L297.551 30.6003L297.402 30.799C294.324 34.8228 289.607 36.2137 286.48 36.2137C276.847 36.2137 270.095 29.2094 270.095 19.1749C270.095 9.14036 276.847 2.13606 286.48 2.13606C290.451 2.13606 294.076 3.82504 296.409 6.80559L296.558 7.00429L298.544 5.31532L298.346 5.11661C295.416 1.83801 291.444 0.0993517 286.48 0.0993517C275.408 0.0993517 267.662 7.94814 267.662 19.2246ZM365.125 19.2246C365.125 30.501 372.87 38.3498 383.942 38.3498C389.304 38.3498 393.673 36.313 396.851 32.339L397 32.1403L395.014 30.6003L394.865 30.799C391.836 34.8228 387.07 36.2137 383.942 36.2137C374.31 36.2137 367.558 29.2094 367.558 19.1749C367.558 9.14036 374.31 2.13606 383.942 2.13606C387.914 2.13606 391.539 3.82504 393.872 6.80559L394.021 7.00429L396.007 5.31532L395.808 5.11661C392.879 1.73865 388.857 0 383.892 0C372.87 0.0993517 365.125 7.94814 365.125 19.2246ZM309.567 37.4556H312V0.993517H309.567V37.4556ZM322.376 0.993517V37.4556H324.809V19.622H342.435V17.5356H324.809V3.12958H343.775V0.993517H322.376ZM354.053 37.4556H356.486V0.993517H354.053V37.4556Z" fill="white"/>
</svg>
