<svg width="250" height="26" viewBox="0 0 250 26" fill="none" xmlns="http://www.w3.org/2000/svg">
<path d="M11.1931 4.70862C11.6621 5.87441 13.7881 11.2176 14.1008 11.9624H8.16033C8.47299 11.1852 10.7241 5.84203 11.1931 4.70862ZM10.005 1.14648L0 24.9156H2.87644L7.15983 14.5207C7.15983 14.5207 14.6323 14.5207 15.0388 14.5207C15.1951 14.9093 19.1971 24.9156 19.1971 24.9156H22.2299L12.5688 1.14648H10.005Z" fill="#005099"/>
<path d="M45.1484 1.14648C45.1484 1.14648 37.801 18.6981 37.2382 20.0258C36.6754 18.6981 29.328 1.14648 29.328 1.14648H25.6699V24.9156H28.39V5.68011L36.5504 24.9156H37.8948C37.8948 24.9156 44.9296 8.04408 45.9301 5.7125V24.9156H48.6502V1.14648H45.1484Z" fill="#005099"/>
<path d="M107.179 1.14648V24.9156H123.374V22.2926H109.93V13.9702H122.155V11.3148H109.93V3.76951H122.843V1.14648H107.179Z" fill="#005099"/>
<path d="M96.2046 13.7453C99.8001 13.0977 101.707 10.9928 101.707 7.56017C101.707 3.31799 98.9247 1.14832 93.4532 1.14832H83.8547V11.3166H77.7891C77.1013 4.90476 72.474 0.56543 66.0645 0.56543C59.0923 0.56543 54.2148 5.68195 54.2148 13.0329C54.2148 20.3839 59.0923 25.5004 66.0645 25.5004C72.7554 25.5004 77.4765 20.8048 77.8829 13.9396H83.8859V24.8851H86.606V13.972H93.3594C93.547 14.2958 99.6125 24.9175 99.6125 24.9175H102.739C102.77 24.9175 96.6736 14.4901 96.2046 13.7453ZM66.0645 22.8774C60.6868 22.8774 56.935 18.8295 56.935 13.0329C56.935 7.23634 60.6868 3.18846 66.0645 3.18846C71.4422 3.18846 75.1941 7.23634 75.1941 13.0329C75.1941 18.8295 71.4109 22.8774 66.0645 22.8774ZM86.5748 11.2842V3.73897H94.0473C98.487 3.73897 98.956 6.362 98.956 7.4954C98.956 8.62881 98.487 11.2842 94.0473 11.2842H86.5748Z" fill="#005099"/>
<path d="M131.909 1.14766V24.9168H133.441V13.2913H138.881C142.164 13.2913 145.666 11.7045 145.666 7.23568C145.666 1.73056 140.57 1.11528 138.381 1.11528H131.909M133.785 2.54013H138.663C141.195 2.54013 144.134 3.77069 144.134 7.26806C144.134 10.7007 141.383 11.9312 138.788 11.9312H133.441V2.54013H133.785ZM154.639 1.14766L144.634 24.9168H146.198C146.198 24.9168 150.418 14.6838 150.481 14.4895H160.236C160.33 14.6838 164.394 24.9168 164.394 24.9168H166.145L156.453 1.14766H154.639ZM155.14 3.18779C155.14 3.18779 155.327 2.76681 155.452 2.4106C155.734 3.09064 159.517 12.7084 159.673 13.1294H151.075C151.231 12.676 155.14 3.18779 155.14 3.18779ZM168.552 13.0322C168.552 20.3832 173.43 25.4997 180.402 25.4997C183.779 25.4997 186.53 24.172 188.531 21.5814L188.625 21.4518L187.374 20.448L187.281 20.5775C185.342 23.2005 182.372 24.1072 180.402 24.1072C174.337 24.1072 170.085 19.5412 170.085 12.9999C170.085 6.45848 174.337 1.89247 180.402 1.89247C182.903 1.89247 185.186 2.9935 186.655 4.93648L186.749 5.06601L188 3.96499L187.875 3.83545C186.03 1.69817 183.529 0.564766 180.402 0.564766C173.43 0.564766 168.552 5.68129 168.552 13.0322ZM229.927 13.0322C229.927 20.3832 234.804 25.4997 241.777 25.4997C245.153 25.4997 247.905 24.172 249.906 21.5814L249.999 21.4518L248.749 20.448L248.655 20.5775C246.748 23.2005 243.746 24.1072 241.777 24.1072C235.711 24.1072 231.459 19.5412 231.459 12.9999C231.459 6.45848 235.711 1.89247 241.777 1.89247C244.278 1.89247 246.56 2.9935 248.03 4.93648L248.124 5.06601L249.374 3.96499L249.249 3.83545C247.404 1.63341 244.872 0.5 241.745 0.5C234.804 0.564766 229.927 5.68129 229.927 13.0322ZM194.941 24.9168H196.473V1.14766H194.941V24.9168ZM203.007 1.14766V24.9168H204.539V13.2913H215.639V11.9312H204.539V2.54013H216.483V1.14766H203.007ZM222.955 24.9168H224.487V1.14766H222.955V24.9168Z" fill="#001659"/>
</svg>
