<svg width="170" height="17" viewBox="0 0 170 17" fill="none" xmlns="http://www.w3.org/2000/svg">
<path d="M7.61131 2.86268C7.93022 3.65543 9.37594 7.28885 9.58854 7.79532H5.54903C5.76163 7.26682 7.2924 3.6334 7.61131 2.86268ZM6.8034 0.440399L0 16.6036H1.95598L4.86868 9.53496C4.86868 9.53496 9.94998 9.53496 10.2264 9.53496C10.3327 9.79921 13.054 16.6036 13.054 16.6036H15.1163L8.54677 0.440399H6.8034Z" fill="white"/>
<path d="M30.7005 0.440399C30.7005 0.440399 25.7042 12.3756 25.3215 13.2785C24.9388 12.3756 19.9426 0.440399 19.9426 0.440399H17.4551V16.6036H19.3048V3.5233L24.8538 16.6036H25.768C25.768 16.6036 30.5516 5.13081 31.232 3.54532V16.6036H33.0816V0.440399H30.7005Z" fill="white"/>
<path d="M72.8813 0.440399V16.6036H83.8944V14.8199H74.7523V9.16061H83.0652V7.35491H74.7523V2.22408H83.5329V0.440399H72.8813Z" fill="white"/>
<path d="M65.4192 9.00647C67.8642 8.56606 69.1611 7.13471 69.1611 4.80051C69.1611 1.9158 67.2689 0.44041 63.5483 0.44041H57.0213V7.35492H52.8967C52.429 2.99481 49.2824 0.0440369 44.924 0.0440369C40.1829 0.0440369 36.8662 3.52331 36.8662 8.52202C36.8662 13.5207 40.1829 17 44.924 17C49.4738 17 52.6841 13.807 52.9605 9.1386H57.0426V16.5816H58.8922V9.16062H63.4845C63.6121 9.38082 67.7367 16.6036 67.7367 16.6036H69.8627C69.884 16.6036 65.7382 9.51295 65.4192 9.00647ZM44.924 15.2163C41.2672 15.2163 38.7159 12.4637 38.7159 8.52202C38.7159 4.58031 41.2672 1.82772 44.924 1.82772C48.5808 1.82772 51.1321 4.58031 51.1321 8.52202C51.1321 12.4637 48.5596 15.2163 44.924 15.2163ZM58.871 7.3329V2.20207H63.9523C66.9713 2.20207 67.2902 3.98575 67.2902 4.75647C67.2902 5.5272 66.9713 7.3329 63.9523 7.3329H58.871Z" fill="white"/>
<path d="M89.6987 0.440415V16.6036H90.7405V8.69819H94.4399C96.6722 8.69819 99.0534 7.61917 99.0534 4.58031C99.0534 0.836788 95.5879 0.418394 94.0997 0.418394H89.6987M90.9744 1.38731H94.291C96.0131 1.38731 98.0116 2.22409 98.0116 4.60233C98.0116 6.93653 96.1407 7.77332 94.3761 7.77332H90.7405V1.38731H90.9744ZM105.155 0.440415L98.3518 16.6036H99.4148C99.4148 16.6036 102.285 9.64508 102.328 9.51295H108.961C109.025 9.64508 111.789 16.6036 111.789 16.6036H112.979L106.388 0.440415H105.155ZM105.495 1.82772C105.495 1.82772 105.623 1.54145 105.708 1.29922C105.899 1.76166 108.472 8.30181 108.578 8.58808H102.732C102.838 8.27979 105.495 1.82772 105.495 1.82772ZM114.616 8.52202C114.616 13.5207 117.933 17 122.674 17C124.97 17 126.841 16.0972 128.202 14.3355L128.266 14.2474L127.415 13.5648L127.351 13.6529C126.033 15.4365 124.013 16.0531 122.674 16.0531C118.549 16.0531 115.658 12.9482 115.658 8.5C115.658 4.05181 118.549 0.946891 122.674 0.946891C124.375 0.946891 125.927 1.6956 126.926 3.01684L126.99 3.10492L127.84 2.35622L127.755 2.26813C126.501 0.814767 124.8 0.0440415 122.674 0.0440415C117.933 0.0440415 114.616 3.52332 114.616 8.52202ZM156.351 8.52202C156.351 13.5207 159.667 17 164.409 17C166.705 17 168.576 16.0972 169.936 14.3355L170 14.2474L169.15 13.5648L169.086 13.6529C167.789 15.4365 165.748 16.0531 164.409 16.0531C160.284 16.0531 157.393 12.9482 157.393 8.5C157.393 4.05181 160.284 0.946891 164.409 0.946891C166.109 0.946891 167.661 1.6956 168.661 3.01684L168.724 3.10492L169.575 2.35622L169.49 2.26813C168.236 0.770725 166.513 0 164.387 0C159.667 0.0440415 156.351 3.52332 156.351 8.52202ZM132.56 16.6036H133.602V0.440415H132.56V16.6036ZM138.045 0.440415V16.6036H139.087V8.69819H146.635V7.77332H139.087V1.38731H147.209V0.440415H138.045ZM151.61 16.6036H152.651V0.440415H151.61V16.6036Z" fill="white"/>
</svg>
