<svg width="251" height="25" viewBox="0 0 251 25" fill="none" xmlns="http://www.w3.org/2000/svg">
<path d="M11.5754 4.20988C12.0444 5.37568 14.1705 10.7189 14.4831 11.4638H8.54265C8.85531 10.6866 11.1064 5.3433 11.5754 4.20988ZM10.3873 0.647705L0.382324 24.4171H3.25876L7.54215 14.0221C7.54215 14.0221 15.0146 14.0221 15.4211 14.0221C15.5774 14.4107 19.5794 24.4171 19.5794 24.4171H22.6122L12.9511 0.647705H10.3873Z" fill="white"/>
<path d="M45.5298 0.647705C45.5298 0.647705 38.1823 18.1995 37.6196 19.5272C37.0568 18.1995 29.7094 0.647705 29.7094 0.647705H26.0513V24.4171H28.7714V5.18138L36.9317 24.4171H38.2761C38.2761 24.4171 45.3109 7.54537 46.3114 5.21377V24.4171H49.0315V0.647705H45.5298Z" fill="white"/>
<path d="M107.561 0.647705V24.4171H123.757V21.7941H110.312V13.4715H122.537V10.8161H110.312V3.27076H123.225V0.647705H107.561Z" fill="white"/>
<path d="M96.5864 13.2449C100.182 12.5972 102.089 10.4923 102.089 7.05964C102.089 2.81741 99.3065 0.647721 93.8351 0.647721H84.2365V10.8161H78.171C77.4831 4.4042 72.8558 0.0648193 66.4464 0.0648193C59.4741 0.0648193 54.5967 5.1814 54.5967 12.5324C54.5967 19.8835 59.4741 25.0001 66.4464 25.0001C73.1372 25.0001 77.8583 20.3045 78.2648 13.4392H84.2678V24.3848H86.9879V13.4716H93.7413C93.9289 13.7954 99.9944 24.4172 99.9944 24.4172H103.121C103.152 24.4172 97.0554 13.9897 96.5864 13.2449ZM66.4464 22.377C61.0687 22.377 57.3168 18.3291 57.3168 12.5324C57.3168 6.7358 61.0687 2.68788 66.4464 2.68788C71.824 2.68788 75.5759 6.7358 75.5759 12.5324C75.5759 18.3291 71.7928 22.377 66.4464 22.377ZM86.9566 10.7837V3.23839H94.4291C98.8688 3.23839 99.3378 5.86145 99.3378 6.99487C99.3378 8.12829 98.8688 10.7837 94.4291 10.7837H86.9566Z" fill="white"/>
<path d="M132.292 0.647668V24.4171H133.824V12.7915H139.264C142.547 12.7915 146.049 11.2047 146.049 6.73575C146.049 1.23057 140.953 0.615285 138.764 0.615285H132.292M134.168 2.04016H139.045C141.578 2.04016 144.517 3.27073 144.517 6.76814C144.517 10.2008 141.765 11.4313 139.17 11.4313H133.824V2.04016H134.168ZM155.022 0.647668L145.017 24.4171H146.58C146.58 24.4171 150.801 14.1839 150.864 13.9896H160.619C160.712 14.1839 164.777 24.4171 164.777 24.4171H166.528L156.836 0.647668H155.022ZM155.522 2.68782C155.522 2.68782 155.71 2.26684 155.835 1.91062C156.116 2.59067 159.9 12.2085 160.056 12.6295H151.458C151.614 12.1762 155.522 2.68782 155.522 2.68782ZM168.935 12.5324C168.935 19.8834 173.813 25 180.785 25C184.162 25 186.913 23.6723 188.914 21.0816L189.008 20.9521L187.757 19.9482L187.663 20.0777C185.725 22.7008 182.755 23.6075 180.785 23.6075C174.719 23.6075 170.467 19.0415 170.467 12.5C170.467 5.95855 174.719 1.39249 180.785 1.39249C183.286 1.39249 185.569 2.49352 187.038 4.43653L187.132 4.56606L188.383 3.46503L188.257 3.33549C186.413 1.19819 183.912 0.0647668 180.785 0.0647668C173.813 0.0647668 168.935 5.18135 168.935 12.5324ZM230.31 12.5324C230.31 19.8834 235.187 25 242.159 25C245.536 25 248.287 23.6723 250.288 21.0816L250.382 20.9521L249.132 19.9482L249.038 20.0777C247.131 22.7008 244.129 23.6075 242.159 23.6075C236.094 23.6075 231.842 19.0415 231.842 12.5C231.842 5.95855 236.094 1.39249 242.159 1.39249C244.661 1.39249 246.943 2.49352 248.413 4.43653L248.506 4.56606L249.757 3.46503L249.632 3.33549C247.787 1.13342 245.255 0 242.128 0C235.187 0.0647668 230.31 5.18135 230.31 12.5324ZM195.324 24.4171H196.856V0.647668H195.324V24.4171ZM203.39 0.647668V24.4171H204.922V12.7915H216.021V11.4313H204.922V2.04016H216.866V0.647668H203.39ZM223.338 24.4171H224.87V0.647668H223.338V24.4171Z" fill="white"/>
</svg>
