<svg width="250" height="25" viewBox="0 0 250 25" fill="none" xmlns="http://www.w3.org/2000/svg">
<path d="M11.1931 4.20964C11.6621 5.37544 13.7881 10.7187 14.1008 11.4635H8.16033C8.47299 10.6863 10.7241 5.34306 11.1931 4.20964ZM10.005 0.647461L0 24.4169H2.87644L7.15983 14.0218C7.15983 14.0218 14.6323 14.0218 15.0388 14.0218C15.1951 14.4104 19.1971 24.4169 19.1971 24.4169H22.2299L12.5688 0.647461H10.005Z" fill="#161616"/>
<path d="M45.1484 0.647461C45.1484 0.647461 37.801 18.1993 37.2382 19.527C36.6754 18.1993 29.328 0.647461 29.328 0.647461H25.6699V24.4169H28.39V5.18114L36.5504 24.4169H37.8948C37.8948 24.4169 44.9296 7.54513 45.9301 5.21352V24.4169H48.6502V0.647461H45.1484Z" fill="#161616"/>
<path d="M107.178 0.647461V24.4169H123.373V21.7938H109.929V13.4713H122.154V10.8159H109.929V3.27052H122.842V0.647461H107.178Z" fill="#161616"/>
<path d="M96.2046 13.245C99.8001 12.5973 101.707 10.4924 101.707 7.05976C101.707 2.81753 98.9247 0.647843 93.4532 0.647843H83.8547V10.8162H77.7891C77.1013 4.40432 72.474 0.0649414 66.0645 0.0649414C59.0923 0.0649414 54.2148 5.18152 54.2148 12.5326C54.2148 19.8836 59.0923 25.0002 66.0645 25.0002C72.7554 25.0002 77.4765 20.3046 77.8829 13.4393H83.8859V24.3849H86.606V13.4717H93.3594C93.547 13.7955 99.6126 24.4173 99.6126 24.4173H102.739C102.77 24.4173 96.6736 13.9898 96.2046 13.245ZM66.0645 22.3771C60.6868 22.3771 56.935 18.3292 56.935 12.5326C56.935 6.73593 60.6868 2.688 66.0645 2.688C71.4422 2.688 75.1941 6.73593 75.1941 12.5326C75.1941 18.3292 71.4109 22.3771 66.0645 22.3771ZM86.5748 10.7839V3.23852H94.0473C98.487 3.23852 98.956 5.86157 98.956 6.99499C98.956 8.12841 98.487 10.7839 94.0473 10.7839H86.5748Z" fill="#161616"/>
<path d="M131.91 0.647668V24.4171H133.442V12.7915H138.882C142.165 12.7915 145.667 11.2047 145.667 6.73575C145.667 1.23057 140.571 0.615285 138.382 0.615285H131.91M133.786 2.04016H138.664C141.196 2.04016 144.135 3.27073 144.135 6.76814C144.135 10.2008 141.384 11.4313 138.789 11.4313H133.442V2.04016H133.786ZM154.64 0.647668L144.635 24.4171H146.199C146.199 24.4171 150.419 14.1839 150.482 13.9896H160.237C160.331 14.1839 164.395 24.4171 164.395 24.4171H166.146L156.454 0.647668H154.64ZM155.141 2.68782C155.141 2.68782 155.328 2.26684 155.453 1.91062C155.735 2.59067 159.518 12.2085 159.674 12.6295H151.076C151.232 12.1762 155.141 2.68782 155.141 2.68782ZM168.553 12.5324C168.553 19.8834 173.431 25 180.403 25C183.78 25 186.531 23.6723 188.532 21.0816L188.626 20.9521L187.375 19.9482L187.282 20.0777C185.343 22.7008 182.373 23.6075 180.403 23.6075C174.338 23.6075 170.085 19.0415 170.085 12.5C170.085 5.95855 174.338 1.39249 180.403 1.39249C182.904 1.39249 185.187 2.49352 186.656 4.43653L186.75 4.56606L188.001 3.46503L187.876 3.33549C186.031 1.19819 183.53 0.0647668 180.403 0.0647668C173.431 0.0647668 168.553 5.18135 168.553 12.5324ZM229.928 12.5324C229.928 19.8834 234.805 25 241.778 25C245.154 25 247.906 23.6723 249.907 21.0816L250 20.9521L248.75 19.9482L248.656 20.0777C246.749 22.7008 243.747 23.6075 241.778 23.6075C235.712 23.6075 231.46 19.0415 231.46 12.5C231.46 5.95855 235.712 1.39249 241.778 1.39249C244.279 1.39249 246.561 2.49352 248.031 4.43653L248.125 4.56606L249.375 3.46503L249.25 3.33549C247.405 1.13342 244.873 0 241.746 0C234.805 0.0647668 229.928 5.18135 229.928 12.5324ZM194.942 24.4171H196.474V0.647668H194.942V24.4171ZM203.008 0.647668V24.4171H204.54V12.7915H215.64V11.4313H204.54V2.04016H216.484V0.647668H203.008ZM222.956 24.4171H224.488V0.647668H222.956V24.4171Z" fill="#161616"/>
</svg>
