<svg width="283" height="28" viewBox="0 0 283 28" fill="none" xmlns="http://www.w3.org/2000/svg">
<path d="M12.6706 4.6012C13.2015 5.87534 15.6082 11.7151 15.9622 12.5292H9.23755C9.59148 11.6797 12.1398 5.83995 12.6706 4.6012ZM11.3257 0.708008L6.10352e-05 26.6862H3.25619L8.10499 15.3252C8.10499 15.3252 16.5638 15.3252 17.0239 15.3252C17.2009 15.7499 21.7312 26.6862 21.7312 26.6862H25.1643L14.2279 0.708008H11.3257Z" fill="#005099"/>
<path d="M51.1071 0.708008C51.1071 0.708008 42.7898 19.8908 42.1527 21.3419C41.5157 19.8908 33.1984 0.708008 33.1984 0.708008H29.0574V26.6862H32.1366V5.66298L41.3741 26.6862H42.896C42.896 26.6862 50.8593 8.24665 51.9919 5.69838V26.6862H55.0711V0.708008H51.1071Z" fill="#005099"/>
<path d="M121.326 0.708008V26.6862H139.66V23.8194H124.441V14.7235H138.279V11.8213H124.441V3.57482H139.058V0.708008H121.326Z" fill="#005099"/>
<path d="M108.903 14.4761C112.974 13.7683 115.132 11.4677 115.132 7.71611C115.132 3.07967 111.983 0.708358 105.789 0.708358H94.9233V11.8217H88.0571C87.2784 4.81391 82.0403 0.0712891 74.7848 0.0712891C66.8922 0.0712891 61.371 5.66334 61.371 13.6975C61.371 21.7316 66.8922 27.3237 74.7848 27.3237C82.3588 27.3237 87.7031 22.1917 88.1632 14.6885H94.9586V26.6512H98.0378V14.7239H105.683C105.895 15.0778 112.761 26.6866 112.761 26.6866H116.3C116.336 26.6866 109.434 15.2901 108.903 14.4761ZM74.7848 24.4569C68.6973 24.4569 64.4501 20.0328 64.4501 13.6975C64.4501 7.36218 68.6973 2.9381 74.7848 2.9381C80.8724 2.9381 85.1195 7.36218 85.1195 13.6975C85.1195 20.0328 80.837 24.4569 74.7848 24.4569ZM98.0024 11.7863V3.53977H106.461C111.487 3.53977 112.018 6.40658 112.018 7.64533C112.018 8.88407 111.487 11.7863 106.461 11.7863H98.0024Z" fill="#005099"/>
<path d="M149.322 0.707854V26.6861H151.056V13.9801H157.214C160.931 13.9801 164.895 12.2459 164.895 7.36168C164.895 1.34492 159.126 0.672461 156.648 0.672461H149.322M151.445 2.22974H156.967C159.833 2.22974 163.16 3.57466 163.16 7.39707C163.16 11.1487 160.046 12.4936 157.108 12.4936H151.056V2.22974H151.445ZM175.052 0.707854L163.727 26.6861H165.496C165.496 26.6861 170.274 15.502 170.345 15.2896H181.388C181.494 15.502 186.095 26.6861 186.095 26.6861H188.077L177.105 0.707854H175.052ZM175.619 2.93759C175.619 2.93759 175.831 2.47749 175.973 2.08817C176.291 2.83142 180.574 13.343 180.751 13.8032H171.018C171.195 13.3077 175.619 2.93759 175.619 2.93759ZM190.802 13.697C190.802 21.7311 196.323 27.3232 204.216 27.3232C208.038 27.3232 211.153 25.8721 213.418 23.0406L213.524 22.8991L212.108 21.8019L212.002 21.9435C209.808 24.8103 206.446 25.8013 204.216 25.8013C197.35 25.8013 192.536 20.8109 192.536 13.6616C192.536 6.51226 197.35 1.52189 204.216 1.52189C207.047 1.52189 209.631 2.72524 211.294 4.8488L211.401 4.99037L212.816 3.78702L212.675 3.64545C210.587 1.30953 207.755 0.0707854 204.216 0.0707854C196.323 0.0707854 190.802 5.66283 190.802 13.697ZM260.278 13.697C260.278 21.7311 265.799 27.3232 273.692 27.3232C277.514 27.3232 280.629 25.8721 282.894 23.0406L283 22.8991L281.584 21.8019L281.478 21.9435C279.319 24.8103 275.922 25.8013 273.692 25.8013C266.826 25.8013 262.012 20.8109 262.012 13.6616C262.012 6.51226 266.826 1.52189 273.692 1.52189C276.523 1.52189 279.107 2.72524 280.77 4.8488L280.876 4.99037L282.292 3.78702L282.151 3.64545C280.062 1.23874 277.196 0 273.656 0C265.799 0.0707854 260.278 5.66283 260.278 13.697ZM220.674 26.6861H222.408V0.707854H220.674V26.6861ZM229.805 0.707854V26.6861H231.539V13.9801H244.103V12.4936H231.539V2.22974H245.059V0.707854H229.805ZM252.385 26.6861H254.12V0.707854H252.385V26.6861Z" fill="#001659"/>
</svg>
